PathFileType	4	(X/Y/Z)	./resultDataOpenSim/trcMotMarkerGrf/sub09/qtm-01-04.trc
DataRate	CameraRate	NumFrames	NumMarkers	Units	OrigDataRate	OrigDataStartFrame	OrigNumFrames
250.000000	250.000000	8	24	m	250.000000	176	468
Frame#	Time	L.Toe.Tip			R.Toe.Tip			L.Ankle.Lat			R.Ankle.Lat			L.Ankle.Med			R.Ankle.Med			L.Heel			R.Heel			L.Knee.Lat			R.Knee.Lat			L.Knee.Med			R.Knee.Med			L.Thigh.Upper			R.Thigh.Upper			L.ASIS			R.ASIS			V.Sacral			L.Acromium			R.Acromium			C7			L.Elbow			R.Elbow			L.Wrist.Lat			R.Wrist.Lat
		X1	Y1	Z1	X2	Y2	Z2	X3	Y3	Z3	X4	Y4	Z4	X5	Y5	Z5	X6	Y6	Z6	X7	Y7	Z7	X8	Y8	Z8	X9	Y9	Z9	X10	Y10	Z10	X11	Y11	Z11	X12	Y12	Z12	X13	Y13	Z13	X14	Y14	Z14	X15	Y15	Z15	X16	Y16	Z16	X17	Y17	Z17	X18	Y18	Z18	X19	Y19	Z19	X20	Y20	Z20	X21	Y21	Z21	X22	Y22	Z22	X23	Y23	Z23	X24	Y24	Z24

176	0.7	0.17044663	0.041715366	0.03488468	-0.61815023	0.047990235	0.12352341	0.021855707	0.072222128	-0.0081971236	-0.70786502	0.16662259	0.1641117	0.038448275	0.094203027	0.088314363	-0.66171104	0.18016841	0.077130919	-0.049435798	0.03693852	0.037735337	-0.76111449	0.1950172	0.1045522	0.025876598	0.48454208	-0.066413486	-0.34347335	0.44871267	0.23361253	0.024215898	0.4902778	0.060135158	-0.34208286	0.4290391	0.10760037	-0.20010805	0.83984766	-0.11657631	-0.27510878	0.838289	0.2528444	-0.14106381	0.92880543	-0.044614019	-0.1600107	0.91834484	0.19572054	-0.32193854	0.97208549	0.056068251	-0.15511244	1.3697629	-0.097095223	-0.18183455	1.3840995	0.23382156	-0.23333812	1.428889	0.065974693	-0.32617102	1.0473895	-0.15456071	-0.31887124	1.0416103	0.31528198	-0.23025226	0.80422088	-0.19809137	-0.14899655	0.82757278	0.34295313
177	0.704	0.17058559	0.041398063	0.035293659	-0.61564017	0.049692392	0.12428634	0.022179547	0.07202952	-0.0079171567	-0.7007763	0.17225649	0.16521447	0.038535804	0.093879029	0.088767393	-0.65347283	0.18407111	0.078646534	-0.049414381	0.03691844	0.037824651	-0.75234659	0.20226385	0.10512667	0.030997661	0.48386751	-0.066437628	-0.33262965	0.44797868	0.23484573	0.029334629	0.48946536	0.060222397	-0.32896872	0.42680653	0.10844668	-0.19284086	0.84076288	-0.1170799	-0.26729259	0.83789278	0.25224774	-0.13402061	0.929729	-0.045404439	-0.15286608	0.91853625	0.19484846	-0.31610069	0.97317858	0.056545434	-0.14786122	1.3704987	-0.097156402	-0.1743909	1.3847212	0.23366426	-0.22653617	1.4294888	0.065980688	-0.31861162	1.0480305	-0.1550664	-0.31242358	1.0428057	0.31488898	-0.22155945	0.8050613	-0.19818448	-0.1441126	0.82748159	0.34318135
178	0.708	0.17070809	0.041166776	0.035597503	-0.61289997	0.051450586	0.12513599	0.022473695	0.071855052	-0.007695395	-0.69312603	0.17784444	0.16633563	0.038668551	0.093584318	0.089140464	-0.64504566	0.18800968	0.080131744	-0.04939895	0.036913673	0.037897379	-0.7431128	0.20936681	0.10572429	0.035894539	0.48323368	-0.066432089	-0.32148644	0.44733649	0.23592745	0.034024414	0.48859243	0.060342202	-0.31611981	0.42484201	0.10940766	-0.18554556	0.84165255	-0.11759734	-0.25960393	0.83757699	0.25164671	-0.12706872	0.93058052	-0.046096582	-0.14586132	0.91883346	0.19402228	-0.3102251	0.97444001	0.056911467	-0.14061456	1.3712629	-0.097215069	-0.16708883	1.3853772	0.23349781	-0.21963506	1.4301789	0.065953788	-0.3110322	1.0487045	-0.15569502	-0.30604121	1.0440177	0.31459844	-0.21280346	0.80596637	-0.19825652	-0.13919219	0.82744667	0.34340796
179	0.712	0.17081104	0.041002457	0.035796468	-0.60989718	0.053253652	0.12608199	0.022761372	0.071700209	-0.0075465868	-0.68491638	0.18336488	0.16748914	0.03884369	0.093335694	0.089400217	-0.63644522	0.19202432	0.081551877	-0.049412178	0.036938222	0.037875603	-0.73351453	0.21630999	0.10653648	0.040602729	0.48267615	-0.066402834	-0.31027019	0.44684777	0.2369242	0.038296858	0.48771647	0.06047752	-0.30345206	0.42315451	0.11034833	-0.17824407	0.84252874	-0.11812456	-0.25205956	0.83737066	0.25103422	-0.12022401	0.93139053	-0.046694644	-0.13900137	0.91923556	0.19324632	-0.30375338	0.97570706	0.056790146	-0.13339959	1.3720582	-0.097286529	-0.1599215	1.3860623	0.23333035	-0.21257477	1.4309559	0.065818068	-0.30351948	1.0494187	-0.15626391	-0.29975361	1.0452408	0.31439807	-0.20398886	0.80693728	-0.19831895	-0.1342399	0.82746514	0.34362854
180	0.716	0.17088585	0.040880018	0.035924475	-0.60650883	0.055126387	0.12713305	0.023065079	0.071567887	-0.007454407	-0.67614494	0.18881595	0.16867261	0.039029419	0.093139233	0.089550322	-0.62743452	0.19591341	0.08294787	-0.049480172	0.036995392	0.037714262	-0.72357558	0.22308627	0.10762935	0.045151182	0.48219329	-0.066339527	-0.29943754	0.44671981	0.23805468	0.0421744	0.48688629	0.060612693	-0.29089203	0.42171045	0.11115144	-0.17098542	0.84340683	-0.11864093	-0.2446807	0.83730487	0.2504128	-0.11349034	0.93218887	-0.047216976	-0.13228707	0.91974326	0.1925331	-0.29646865	0.97684823	0.056048877	-0.12623265	1.372893	-0.097378564	-0.152861	1.3867811	0.23318854	-0.20540223	1.4318209	0.065602135	-0.29608812	1.0501716	-0.15685043	-0.29352614	1.0464676	0.31426614	-0.19512708	0.80797353	-0.19837244	-0.1292917	0.82752306	0.34382882
181	0.72	0.17092716	0.040783962	0.036020334	-0.60258637	0.057113332	0.12829574	0.023380018	0.071455847	-0.0073926541	-0.66682894	0.19419182	0.16989079	0.03919549	0.092987647	0.089624598	-0.61784807	0.19953382	0.084378179	-0.049593763	0.037065723	0.03746015	-0.71328843	0.22969174	0.10893266	0.049557575	0.48173203	-0.066207514	-0.28934585	0.44717708	0.2395482	0.045669914	0.48614388	0.060732012	-0.27841039	0.42049878	0.11178568	-0.16382519	0.84430868	-0.11913235	-0.23750027	0.83740042	0.24979487	-0.10685197	0.93299747	-0.047673624	-0.12571499	0.92036291	0.19189908	-0.28839994	0.97781237	0.05475411	-0.11909982	1.3737778	-0.097481045	-0.14589448	1.3875481	0.23309398	-0.19823754	1.432795	0.065409329	-0.28869477	1.0509521	-0.15764205	-0.28725421	1.0476884	0.31417704	-0.18623195	0.80907608	-0.19840797	-0.12441929	0.82759141	0.34399338
182	0.724	0.17093636	0.040708791	0.036107753	-0.59804027	0.059254193	0.12957735	0.023677238	0.071355702	-0.0073408972	-0.65704631	0.19944363	0.17113292	0.039331262	0.092869028	0.089665534	-0.60778417	0.20296519	0.08582826	-0.049709644	0.037117888	0.037226612	-0.70264479	0.23613346	0.11030496	0.053812364	0.481238	-0.065974254	-0.27972753	0.44811446	0.24128257	0.048729261	0.48550513	0.060793013	-0.26590744	0.41955175	0.11228202	-0.15680622	0.84525914	-0.11959737	-0.23055974	0.83766547	0.24919305	-0.10027562	0.93383088	-0.048051872	-0.11927554	0.92109959	0.19135308	-0.27999481	0.97869019	0.053219331	-0.11196885	1.3747221	-0.097572816	-0.13902839	1.3883761	0.23304884	-0.19113621	1.4338803	0.065284532	-0.28134663	1.0517583	-0.15856915	-0.28085221	1.048902	0.31411003	-0.17731835	0.81024916	-0.19842033	-0.11971201	0.82763669	0.34411367
183	0.728	0.17092007	0.040653478	0.036191957	-0.59283131	0.06158504	0.13098039	0.023936601	0.071265078	-0.0072832963	-0.64691664	0.20449059	0.17235047	0.039446073	0.092774854	0.089703421	-0.59743621	0.20635337	0.087227948	-0.049791736	0.037135977	0.037096726	-0.6916546	0.24243469	0.11164904	0.057821349	0.48074703	-0.06568293	-0.2697337	0.4490607	0.24275883	0.051255624	0.48495264	0.060725743	-0.2532796	0.41891941	0.11266973	-0.1499621	0.84627869	-0.12003393	-0.22387642	0.83810025	0.24861694	-0.093739377	0.93469928	-0.048334227	-0.1129628	0.92194767	0.19089351	-0.27205063	0.97966364	0.05188505	-0.10482223	1.3757297	-0.097642702	-0.13225551	1.3892695	0.23304076	-0.1840614	1.4350407	0.065195744	-0.27406038	1.0526016	-0.15943099	-0.27432923	1.0501263	0.31405623	-0.16840002	0.81149382	-0.19840908	-0.11521432	0.82765194	0.34419291
